<?xml version="1.0" encoding="UTF-8" standalone="no"?><svg xmlns="http://www.w3.org/2000/svg" xmlns:xlink="http://www.w3.org/1999/xlink" contentScriptType="application/ecmascript" contentStyleType="text/css" height="439px" preserveAspectRatio="none" style="width:579px;height:439px;" version="1.1" viewBox="0 0 579 439" width="579px" zoomAndPan="magnify"><defs><filter height="300%" id="f1qp0j2lpupsaz" width="300%" x="-1" y="-1"><feGaussianBlur result="blurOut" stdDeviation="2.0"/><feColorMatrix in="blurOut" result="blurOut2" type="matrix" values="0 0 0 0 0 0 0 0 0 0 0 0 0 0 0 0 0 0 .4 0"/><feOffset dx="4.0" dy="4.0" in="blurOut2" result="blurOut3"/><feBlend in="SourceGraphic" in2="blurOut3" mode="normal"/></filter></defs><g><!--entity cartography--><rect fill="#FEFECE" filter="url(#f1qp0j2lpupsaz)" height="36.2969" style="stroke: #A80036; stroke-width: 1.5;" width="102" x="173.95" y="296"/><rect fill="#FEFECE" height="5" style="stroke: #A80036; stroke-width: 1.5;" width="10" x="168.95" y="301"/><rect fill="#FEFECE" height="5" style="stroke: #A80036; stroke-width: 1.5;" width="10" x="168.95" y="322.2969"/><text fill="#000000" font-family="sans-serif" font-size="14" lengthAdjust="spacingAndGlyphs" textLength="82" x="183.95" y="318.9951">cartography</text><!--entity components--><rect fill="#FEFECE" filter="url(#f1qp0j2lpupsaz)" height="36.2969" style="stroke: #A80036; stroke-width: 1.5;" width="108" x="152.95" y="8"/><rect fill="#FEFECE" height="5" style="stroke: #A80036; stroke-width: 1.5;" width="10" x="147.95" y="13"/><rect fill="#FEFECE" height="5" style="stroke: #A80036; stroke-width: 1.5;" width="10" x="147.95" y="34.2969"/><text fill="#000000" font-family="sans-serif" font-size="14" lengthAdjust="spacingAndGlyphs" textLength="88" x="162.95" y="30.9951">components</text><!--entity geometry--><rect fill="#FEFECE" filter="url(#f1qp0j2lpupsaz)" height="36.2969" style="stroke: #A80036; stroke-width: 1.5;" width="86" x="381.95" y="296"/><rect fill="#FEFECE" height="5" style="stroke: #A80036; stroke-width: 1.5;" width="10" x="376.95" y="301"/><rect fill="#FEFECE" height="5" style="stroke: #A80036; stroke-width: 1.5;" width="10" x="376.95" y="322.2969"/><text fill="#000000" font-family="sans-serif" font-size="14" lengthAdjust="spacingAndGlyphs" textLength="66" x="391.95" y="318.9951">geometry</text><!--entity io--><rect fill="#FEFECE" filter="url(#f1qp0j2lpupsaz)" height="36.2969" style="stroke: #A80036; stroke-width: 1.5;" width="32" x="26.95" y="200"/><rect fill="#FEFECE" height="5" style="stroke: #A80036; stroke-width: 1.5;" width="10" x="21.95" y="205"/><rect fill="#FEFECE" height="5" style="stroke: #A80036; stroke-width: 1.5;" width="10" x="21.95" y="226.2969"/><text fill="#000000" font-family="sans-serif" font-size="14" lengthAdjust="spacingAndGlyphs" textLength="12" x="36.95" y="222.9951">io</text><!--entity misc--><rect fill="#FEFECE" filter="url(#f1qp0j2lpupsaz)" height="36.2969" style="stroke: #A80036; stroke-width: 1.5;" width="52" x="446.95" y="392"/><rect fill="#FEFECE" height="5" style="stroke: #A80036; stroke-width: 1.5;" width="10" x="441.95" y="397"/><rect fill="#FEFECE" height="5" style="stroke: #A80036; stroke-width: 1.5;" width="10" x="441.95" y="418.2969"/><text fill="#000000" font-family="sans-serif" font-size="14" lengthAdjust="spacingAndGlyphs" textLength="32" x="456.95" y="414.9951">misc</text><!--entity planning--><rect fill="#FEFECE" filter="url(#f1qp0j2lpupsaz)" height="36.2969" style="stroke: #A80036; stroke-width: 1.5;" width="79" x="121.45" y="104"/><rect fill="#FEFECE" height="5" style="stroke: #A80036; stroke-width: 1.5;" width="10" x="116.45" y="109"/><rect fill="#FEFECE" height="5" style="stroke: #A80036; stroke-width: 1.5;" width="10" x="116.45" y="130.2969"/><text fill="#000000" font-family="sans-serif" font-size="14" lengthAdjust="spacingAndGlyphs" textLength="59" x="131.45" y="126.9951">planning</text><!--entity processing--><rect fill="#FEFECE" filter="url(#f1qp0j2lpupsaz)" height="36.2969" style="stroke: #A80036; stroke-width: 1.5;" width="97" x="307.45" y="200"/><rect fill="#FEFECE" height="5" style="stroke: #A80036; stroke-width: 1.5;" width="10" x="302.45" y="205"/><rect fill="#FEFECE" height="5" style="stroke: #A80036; stroke-width: 1.5;" width="10" x="302.45" y="226.2969"/><text fill="#000000" font-family="sans-serif" font-size="14" lengthAdjust="spacingAndGlyphs" textLength="77" x="317.45" y="222.9951">processing</text><!--entity types--><rect fill="#FEFECE" filter="url(#f1qp0j2lpupsaz)" height="36.2969" style="stroke: #A80036; stroke-width: 1.5;" width="58" x="195.95" y="392"/><rect fill="#FEFECE" height="5" style="stroke: #A80036; stroke-width: 1.5;" width="10" x="190.95" y="397"/><rect fill="#FEFECE" height="5" style="stroke: #A80036; stroke-width: 1.5;" width="10" x="190.95" y="418.2969"/><text fill="#000000" font-family="sans-serif" font-size="14" lengthAdjust="spacingAndGlyphs" textLength="38" x="205.95" y="414.9951">types</text><!--link cartography to types--><path d="M224.95,332.24 C224.95,347.48 224.95,369.81 224.95,386.46 " fill="none" id="cartography-types" style="stroke: #A80036; stroke-width: 1.0;"/><polygon fill="#A80036" points="224.95,391.87,228.95,382.87,224.95,386.87,220.95,382.87,224.95,391.87" style="stroke: #A80036; stroke-width: 1.0;"/><!--link cartography to geometry--><path d="M276.13,314 C309.6,314 343.08,314 376.56,314 " fill="none" id="cartography-geometry" style="stroke: #A80036; stroke-width: 1.0;"/><polygon fill="#A80036" points="381.93,314,372.93,310,376.93,314,372.93,318,381.93,314" style="stroke: #A80036; stroke-width: 1.0;"/><!--link cartography to misc--><path d="M269.86,332.02 C319.59,350.87 398.45,380.76 441.82,397.2 " fill="none" id="cartography-misc" style="stroke: #A80036; stroke-width: 1.0;"/><polygon fill="#A80036" points="446.67,399.04,439.673,392.1088,441.9948,397.2672,436.8365,399.589,446.67,399.04" style="stroke: #A80036; stroke-width: 1.0;"/><!--link components to misc--><path d="M261.26,39.63 C305.05,51.53 366.88,72.31 413.95,104 C461.97,136.32 470.16,151.63 501.95,200 C535.85,251.56 567.61,274.61 544.95,332 C536.03,354.6 517,374.47 500.75,388.36 " fill="none" id="components-misc" style="stroke: #A80036; stroke-width: 1.0;"/><polygon fill="#A80036" points="496.68,391.76,506.1448,389.0366,500.5094,388.545,501.0009,382.9096,496.68,391.76" style="stroke: #A80036; stroke-width: 1.0;"/><!--link components to types--><path d="M167.74,44.09 C103.87,74.8 -13.39,144.73 8.95,236 C20.39,282.73 24.17,298.77 58.95,332 C96.62,367.97 154.12,389.45 190.6,400.24 " fill="none" id="components-types" style="stroke: #A80036; stroke-width: 1.0;"/><polygon fill="#A80036" points="195.83,401.76,188.2926,395.4207,191.0262,400.3732,186.0737,403.1068,195.83,401.76" style="stroke: #A80036; stroke-width: 1.0;"/><!--link components to geometry--><path d="M254.24,44.06 C313.6,68.34 412.77,119.13 454.95,200 C470.36,229.52 453.7,267.62 439.74,291.17 " fill="none" id="components-geometry" style="stroke: #A80036; stroke-width: 1.0;"/><polygon fill="#A80036" points="437,295.68,445.0963,290.072,439.5997,291.409,438.2627,285.9124,437,295.68" style="stroke: #A80036; stroke-width: 1.0;"/><!--link components to planning--><path d="M198.52,44.24 C190.93,59.74 179.75,82.59 171.56,99.32 " fill="none" id="components-planning" style="stroke: #A80036; stroke-width: 1.0;"/><polygon fill="#A80036" points="169.34,103.87,176.8864,97.5414,171.5361,99.3781,169.6994,94.0277,169.34,103.87" style="stroke: #A80036; stroke-width: 1.0;"/><!--link components to cartography--><path d="M209.93,44.06 C212.52,59.63 216.13,83.28 217.95,104 C223.91,171.73 224.9,252.22 225,290.55 " fill="none" id="components-cartography" style="stroke: #A80036; stroke-width: 1.0;"/><polygon fill="#A80036" points="225.01,295.89,228.9843,286.8786,224.9957,290.89,220.9843,286.9015,225.01,295.89" style="stroke: #A80036; stroke-width: 1.0;"/><!--link components to io--><path d="M177.58,44.05 C155.34,58.04 125.1,79.49 103.95,104 C79.89,131.89 61.47,170.86 51.44,194.98 " fill="none" id="components-io" style="stroke: #A80036; stroke-width: 1.0;"/><polygon fill="#A80036" points="49.43,199.89,56.5481,193.0832,51.3287,195.2645,49.1473,190.0452,49.43,199.89" style="stroke: #A80036; stroke-width: 1.0;"/><!--link planning to geometry--><path d="M200.69,128.96 C266.82,139.77 394.89,164.79 421.95,200 C441.83,225.86 437.16,265.76 431.44,290.58 " fill="none" id="planning-geometry" style="stroke: #A80036; stroke-width: 1.0;"/><polygon fill="#A80036" points="430.22,295.64,436.2403,287.8454,431.4058,290.7826,428.4685,285.9481,430.22,295.64" style="stroke: #A80036; stroke-width: 1.0;"/><!--link planning to cartography--><path d="M166.75,140.2 C178.41,174.82 204.7,252.86 217.57,291.08 " fill="none" id="planning-cartography" style="stroke: #A80036; stroke-width: 1.0;"/><polygon fill="#A80036" points="219.22,295.98,220.1243,286.1727,217.6174,291.2438,212.5464,288.7369,219.22,295.98" style="stroke: #A80036; stroke-width: 1.0;"/><!--link planning to types--><path d="M156.28,140.26 C147.23,177.01 130.34,265.05 155.95,332 C164.53,354.41 182.96,374.41 198.62,388.41 " fill="none" id="planning-types" style="stroke: #A80036; stroke-width: 1.0;"/><polygon fill="#A80036" points="202.53,391.84,198.3884,382.9043,198.7662,388.5485,193.122,388.9263,202.53,391.84" style="stroke: #A80036; stroke-width: 1.0;"/><!--link planning to misc--><path d="M200.51,124.36 C260.88,128.27 377.17,143.23 454.95,200 C507.16,238.1 532.23,269.46 515.95,332 C510.71,352.14 498.91,372.6 489,387.37 " fill="none" id="planning-misc" style="stroke: #A80036; stroke-width: 1.0;"/><polygon fill="#A80036" points="485.99,391.76,494.3644,386.5764,488.8062,387.6286,487.7541,382.0704,485.99,391.76" style="stroke: #A80036; stroke-width: 1.0;"/><!--link planning to io--><path d="M139.58,140.02 C117.92,157.28 84.63,183.8 63.33,200.77 " fill="none" id="planning-io" style="stroke: #A80036; stroke-width: 1.0;"/><polygon fill="#A80036" points="59.23,204.03,68.7633,201.5567,63.1427,200.917,63.7824,195.2964,59.23,204.03" style="stroke: #A80036; stroke-width: 1.0;"/><!--link processing to types--><path d="M347.84,236.14 C336.77,258.89 315.66,299.92 292.95,332 C278.61,352.26 259.76,373.26 245.54,388.2 " fill="none" id="processing-types" style="stroke: #A80036; stroke-width: 1.0;"/><polygon fill="#A80036" points="242.04,391.86,251.1516,388.1211,245.4961,388.2468,245.3704,382.5913,242.04,391.86" style="stroke: #A80036; stroke-width: 1.0;"/><!--link processing to geometry--><path d="M368.61,236.24 C380.09,251.88 397.04,274.98 409.35,291.75 " fill="none" id="processing-geometry" style="stroke: #A80036; stroke-width: 1.0;"/><polygon fill="#A80036" points="412.38,295.87,410.2789,286.2479,409.4213,291.8393,403.8299,290.9818,412.38,295.87" style="stroke: #A80036; stroke-width: 1.0;"/><!--link processing to misc--><path d="M404.49,234.22 C433.42,246.08 467.76,265.72 484.95,296 C500.96,324.19 491.47,362.75 482.63,386.75 " fill="none" id="processing-misc" style="stroke: #A80036; stroke-width: 1.0;"/><polygon fill="#A80036" points="480.76,391.64,487.7099,384.6615,482.5453,386.9696,480.2373,381.805,480.76,391.64" style="stroke: #A80036; stroke-width: 1.0;"/><!--link processing to cartography--><path d="M332.23,236.02 C310.02,251.96 276.81,275.79 253.23,292.71 " fill="none" id="processing-cartography" style="stroke: #A80036; stroke-width: 1.0;"/><polygon fill="#A80036" points="248.94,295.79,258.5833,293.7881,253.0009,292.873,253.9161,287.2907,248.94,295.79" style="stroke: #A80036; stroke-width: 1.0;"/><!--link io to types--><path d="M46.05,236.2 C51.11,260.13 63.2,303.71 87.95,332 C115.84,363.87 160.26,385.39 190.93,397.41 " fill="none" id="io-types" style="stroke: #A80036; stroke-width: 1.0;"/><polygon fill="#A80036" points="195.73,399.25,188.7773,392.2744,191.0662,397.4474,185.8932,399.7364,195.73,399.25" style="stroke: #A80036; stroke-width: 1.0;"/><!--link io to geometry--><path d="M59.37,223.04 C113.9,236.46 290.48,279.91 376.69,301.12 " fill="none" id="io-geometry" style="stroke: #A80036; stroke-width: 1.0;"/><polygon fill="#A80036" points="381.74,302.37,373.9621,296.3281,376.8859,301.1708,372.0433,304.0946,381.74,302.37" style="stroke: #A80036; stroke-width: 1.0;"/><!--link types to misc--><path d="M254.02,410 C316.54,410 379.07,410 441.6,410 " fill="none" id="types-misc" style="stroke: #A80036; stroke-width: 1.0;"/><polygon fill="#A80036" points="446.87,410,437.87,406,441.87,410,437.87,414,446.87,410" style="stroke: #A80036; stroke-width: 1.0;"/><!--link geometry to types--><path d="M388.74,332.02 C351.78,349.39 294.89,376.13 258.82,393.08 " fill="none" id="geometry-types" style="stroke: #A80036; stroke-width: 1.0;"/><polygon fill="#A80036" points="254.09,395.31,263.9364,395.0896,258.6125,393.1776,260.5245,387.8536,254.09,395.31" style="stroke: #A80036; stroke-width: 1.0;"/><!--link geometry to misc--><path d="M433.76,332.24 C441.67,347.74 453.34,370.59 461.88,387.32 " fill="none" id="geometry-misc" style="stroke: #A80036; stroke-width: 1.0;"/><polygon fill="#A80036" points="464.21,391.87,463.6874,382.035,461.9397,387.4151,456.5596,385.6674,464.21,391.87" style="stroke: #A80036; stroke-width: 1.0;"/><!--
@startuml

component cartography
component components
component geometry
component io
component misc
component planning 
component processing
component types

cartography - -> types
cartography -> geometry
cartography - -> misc

components - -> misc
components - -> types
components - -> geometry
components - -> planning
components - -> cartography
components - -> io

planning - -> geometry
planning - -> cartography
planning - -> types
planning - -> misc
planning - -> io

processing - -> types
processing - -> geometry
processing - -> misc
processing - -> cartography

io - -> types
io - -> geometry

types -> misc

geometry - -> types
geometry -> misc

@enduml

PlantUML version 1.2018.13(Mon Nov 26 18:11:51 CET 2018)
(GPL source distribution)
Java Runtime: OpenJDK Runtime Environment
JVM: OpenJDK 64-Bit Server VM
Java Version: 11.0.11+9-Ubuntu-0ubuntu2.20.04
Operating System: Linux
OS Version: 5.8.0-50-generic
Default Encoding: UTF-8
Language: en
Country: US
--></g></svg>